<mxfile host="65bd71144e">
    <diagram id="0IFXXbWP128ZJu1d8PQr" name="Page-1">
        <mxGraphModel dx="2484" dy="934" grid="1" gridSize="10" guides="1" tooltips="1" connect="1" arrows="1" fold="1" page="1" pageScale="1" pageWidth="850" pageHeight="1100" math="0" shadow="0">
            <root>
                <mxCell id="0"/>
                <mxCell id="1" parent="0"/>
                <mxCell id="4" value=":Kunde/Nutzer&lt;br&gt;" style="shape=umlLifeline;participant=umlActor;perimeter=lifelinePerimeter;whiteSpace=wrap;html=1;container=1;collapsible=0;recursiveResize=0;verticalAlign=top;spacingTop=36;outlineConnect=0;size=40;" parent="1" vertex="1">
                    <mxGeometry x="330" y="20" width="20" height="1550" as="geometry"/>
                </mxCell>
                <mxCell id="5" value="" style="html=1;points=[];perimeter=orthogonalPerimeter;verticalAlign=bottom;" parent="4" vertex="1">
                    <mxGeometry x="5" y="80" width="10" height="1470" as="geometry"/>
                </mxCell>
                <mxCell id="82" value="" style="html=1;points=[];perimeter=orthogonalPerimeter;verticalAlign=bottom;" parent="4" vertex="1">
                    <mxGeometry x="10" y="130" width="10" height="24" as="geometry"/>
                </mxCell>
                <mxCell id="58" value="&lt;div style=&quot;text-align: center&quot;&gt;Suche modellieren&lt;/div&gt;" style="edgeStyle=orthogonalEdgeStyle;html=1;align=left;spacingLeft=2;endArrow=block;rounded=0;entryX=1.189;entryY=0.404;fontSize=6;entryDx=0;entryDy=0;entryPerimeter=0;exitX=1.118;exitY=0.037;exitDx=0;exitDy=0;exitPerimeter=0;" parent="4" source="5" target="82" edge="1">
                    <mxGeometry relative="1" as="geometry">
                        <mxPoint x="22" y="120" as="sourcePoint"/>
                        <Array as="points">
                            <mxPoint x="50" y="119"/>
                            <mxPoint x="50" y="140"/>
                        </Array>
                        <mxPoint x="24.999999999999773" y="140" as="targetPoint"/>
                    </mxGeometry>
                </mxCell>
                <mxCell id="6" value=":System" style="shape=umlLifeline;perimeter=lifelinePerimeter;whiteSpace=wrap;html=1;container=1;collapsible=0;recursiveResize=0;outlineConnect=0;" parent="1" vertex="1">
                    <mxGeometry x="570" y="10" width="100" height="1564" as="geometry"/>
                </mxCell>
                <mxCell id="7" style="edgeStyle=none;html=1;" parent="6" target="6" edge="1">
                    <mxGeometry relative="1" as="geometry">
                        <mxPoint x="49.5" y="170" as="sourcePoint"/>
                    </mxGeometry>
                </mxCell>
                <mxCell id="9" value="" style="html=1;points=[];perimeter=orthogonalPerimeter;verticalAlign=bottom;" parent="6" vertex="1">
                    <mxGeometry x="45" y="100" width="10" height="1460" as="geometry"/>
                </mxCell>
                <mxCell id="33" value="" style="html=1;points=[];perimeter=orthogonalPerimeter;verticalAlign=bottom;" parent="6" vertex="1">
                    <mxGeometry x="50" y="256" width="10" height="24" as="geometry"/>
                </mxCell>
                <mxCell id="34" value="&lt;font style=&quot;font-size: 6px&quot;&gt;&lt;span style=&quot;text-align: center&quot;&gt;Eingabe &lt;br&gt;Prüfen(*)&lt;/span&gt;&lt;/font&gt;" style="edgeStyle=orthogonalEdgeStyle;html=1;align=left;spacingLeft=2;endArrow=block;rounded=0;entryX=1;entryY=0;fontSize=6;" parent="6" edge="1">
                    <mxGeometry relative="1" as="geometry">
                        <mxPoint x="55" y="246" as="sourcePoint"/>
                        <Array as="points">
                            <mxPoint x="85" y="246"/>
                        </Array>
                        <mxPoint x="60" y="266" as="targetPoint"/>
                    </mxGeometry>
                </mxCell>
                <mxCell id="26" value="" style="endArrow=none;dashed=1;html=1;fontSize=6;exitX=1;exitY=0.422;exitDx=0;exitDy=0;exitPerimeter=0;" parent="6" edge="1">
                    <mxGeometry width="50" height="50" relative="1" as="geometry">
                        <mxPoint x="80" y="356.6400000000001" as="sourcePoint"/>
                        <mxPoint x="-320" y="355" as="targetPoint"/>
                    </mxGeometry>
                </mxCell>
                <mxCell id="48" value="" style="endArrow=block;html=1;dashed=1;fontSize=9;exitX=0.171;exitY=0.334;exitDx=0;exitDy=0;exitPerimeter=0;endFill=1;entryX=1.023;entryY=0.47;entryDx=0;entryDy=0;entryPerimeter=0;" parent="6" edge="1">
                    <mxGeometry width="50" height="50" relative="1" as="geometry">
                        <mxPoint x="46.710000000000036" y="933.78316" as="sourcePoint"/>
                        <mxPoint x="-224.76999999999998" y="934.1999999999999" as="targetPoint"/>
                    </mxGeometry>
                </mxCell>
                <mxCell id="49" value="Reservierung gescheitert (Fehlermeldung)" style="text;html=1;align=center;verticalAlign=middle;resizable=0;points=[];autosize=1;strokeColor=none;fillColor=none;fontSize=9;" parent="6" vertex="1">
                    <mxGeometry x="-160" y="916" width="180" height="20" as="geometry"/>
                </mxCell>
                <mxCell id="87" value="" style="html=1;verticalAlign=bottom;endArrow=block;rounded=0;exitX=-0.072;exitY=0.344;exitDx=0;exitDy=0;exitPerimeter=0;entryX=1.087;entryY=0.505;entryDx=0;entryDy=0;entryPerimeter=0;dashed=1;" parent="6" edge="1">
                    <mxGeometry x="-0.2821" y="18" width="80" relative="1" as="geometry">
                        <mxPoint x="354.2800000000002" y="924.93456" as="sourcePoint"/>
                        <mxPoint x="55.86999999999989" y="924.5787000000001" as="targetPoint"/>
                        <mxPoint as="offset"/>
                    </mxGeometry>
                </mxCell>
                <mxCell id="83" value="" style="html=1;verticalAlign=bottom;endArrow=block;rounded=0;exitX=0.5;exitY=0.264;exitDx=0;exitDy=0;exitPerimeter=0;" parent="6" source="9" edge="1">
                    <mxGeometry x="-0.2821" y="18" width="80" relative="1" as="geometry">
                        <mxPoint x="60" y="486" as="sourcePoint"/>
                        <mxPoint x="360" y="486" as="targetPoint"/>
                        <mxPoint as="offset"/>
                    </mxGeometry>
                </mxCell>
                <mxCell id="95" value="" style="html=1;points=[];perimeter=orthogonalPerimeter;verticalAlign=bottom;" parent="6" vertex="1">
                    <mxGeometry x="-225" y="650" width="10" height="24" as="geometry"/>
                </mxCell>
                <mxCell id="101" value="" style="html=1;points=[];perimeter=orthogonalPerimeter;verticalAlign=bottom;" parent="6" vertex="1">
                    <mxGeometry x="55" y="706" width="10" height="24" as="geometry"/>
                </mxCell>
                <mxCell id="102" value="&lt;div style=&quot;text-align: center&quot;&gt;Eingabe prüfen&lt;/div&gt;" style="edgeStyle=orthogonalEdgeStyle;html=1;align=left;spacingLeft=2;endArrow=block;rounded=0;entryX=1.189;entryY=0.404;fontSize=6;entryDx=0;entryDy=0;entryPerimeter=0;exitX=1.118;exitY=0.037;exitDx=0;exitDy=0;exitPerimeter=0;" parent="6" edge="1">
                    <mxGeometry x="0.0622" y="11" relative="1" as="geometry">
                        <mxPoint x="60.000000000000455" y="696" as="sourcePoint"/>
                        <Array as="points">
                            <mxPoint x="93.81999999999994" y="695.78"/>
                            <mxPoint x="93.81999999999994" y="716.78"/>
                        </Array>
                        <mxPoint x="65.71000000000004" y="716.4760000000001" as="targetPoint"/>
                        <mxPoint as="offset"/>
                    </mxGeometry>
                </mxCell>
                <mxCell id="97" value="&lt;div style=&quot;text-align: center&quot;&gt;Zeitraum eingeben/überprüfen&lt;/div&gt;" style="edgeStyle=orthogonalEdgeStyle;html=1;align=left;spacingLeft=2;endArrow=block;rounded=0;entryX=1.189;entryY=0.404;fontSize=6;entryDx=0;entryDy=0;entryPerimeter=0;exitX=1.118;exitY=0.037;exitDx=0;exitDy=0;exitPerimeter=0;" parent="6" edge="1">
                    <mxGeometry relative="1" as="geometry">
                        <mxPoint x="-218.8399999999997" y="640" as="sourcePoint"/>
                        <Array as="points">
                            <mxPoint x="-185.01999999999998" y="639.78"/>
                            <mxPoint x="-185.01999999999998" y="660.78"/>
                        </Array>
                        <mxPoint x="-213.12999999999965" y="660.476" as="targetPoint"/>
                    </mxGeometry>
                </mxCell>
                <mxCell id="98" value="" style="html=1;verticalAlign=bottom;endArrow=block;rounded=0;" parent="6" edge="1">
                    <mxGeometry x="-0.2821" y="18" width="80" relative="1" as="geometry">
                        <mxPoint x="-215" y="690" as="sourcePoint"/>
                        <mxPoint x="45" y="690" as="targetPoint"/>
                        <mxPoint as="offset"/>
                    </mxGeometry>
                </mxCell>
                <mxCell id="99" value="&lt;font style=&quot;font-size: 9px&quot;&gt;Angaben bestätigen&lt;/font&gt;" style="text;html=1;align=center;verticalAlign=middle;resizable=0;points=[];autosize=1;strokeColor=none;fillColor=none;container=0;" parent="6" vertex="1">
                    <mxGeometry x="-125" y="670" width="100" height="20" as="geometry"/>
                </mxCell>
                <mxCell id="103" value="alt" style="shape=umlFrame;whiteSpace=wrap;html=1;width=40;height=20;" parent="6" vertex="1">
                    <mxGeometry x="-315" y="740" width="400" height="110" as="geometry"/>
                </mxCell>
                <mxCell id="108" value="[Eingabe gültig]" style="text;html=1;align=center;verticalAlign=middle;resizable=0;points=[];autosize=1;strokeColor=none;fillColor=none;fontSize=9;" parent="6" vertex="1">
                    <mxGeometry x="-315" y="760" width="80" height="20" as="geometry"/>
                </mxCell>
                <mxCell id="110" value="" style="endArrow=block;html=1;dashed=1;fontSize=9;endFill=1;" edge="1" parent="6">
                    <mxGeometry width="50" height="50" relative="1" as="geometry">
                        <mxPoint x="40.879999999999995" y="830" as="sourcePoint"/>
                        <mxPoint x="-219.12" y="830" as="targetPoint"/>
                    </mxGeometry>
                </mxCell>
                <mxCell id="111" value="&lt;font style=&quot;font-size: 9px&quot;&gt;Reservierung bestätigen&lt;/font&gt;" style="text;html=1;align=center;verticalAlign=middle;resizable=0;points=[];autosize=1;strokeColor=none;fillColor=none;" vertex="1" parent="6">
                    <mxGeometry x="-140" y="760" width="110" height="20" as="geometry"/>
                </mxCell>
                <mxCell id="112" value="Reservierung gescheitert (Fehlermeldung)" style="text;html=1;align=center;verticalAlign=middle;resizable=0;points=[];autosize=1;strokeColor=none;fillColor=none;fontSize=9;" vertex="1" parent="6">
                    <mxGeometry x="-179.12" y="810" width="180" height="20" as="geometry"/>
                </mxCell>
                <mxCell id="113" value="[Eingabe ungültig]" style="text;html=1;align=center;verticalAlign=middle;resizable=0;points=[];autosize=1;strokeColor=none;fillColor=none;fontSize=9;" vertex="1" parent="6">
                    <mxGeometry x="-320" y="800" width="90" height="20" as="geometry"/>
                </mxCell>
                <mxCell id="114" value="" style="endArrow=none;dashed=1;html=1;fontSize=6;" edge="1" parent="6">
                    <mxGeometry width="50" height="50" relative="1" as="geometry">
                        <mxPoint x="85" y="794.71" as="sourcePoint"/>
                        <mxPoint x="-315" y="794.71" as="targetPoint"/>
                    </mxGeometry>
                </mxCell>
                <mxCell id="120" value="loop" style="shape=umlFrame;whiteSpace=wrap;html=1;width=40;height=20;" vertex="1" parent="6">
                    <mxGeometry x="-330" y="630" width="495" height="240" as="geometry"/>
                </mxCell>
                <mxCell id="121" value="while Eingabe&lt;br&gt;ungültig" style="text;html=1;align=center;verticalAlign=middle;resizable=0;points=[];autosize=1;strokeColor=none;fillColor=none;fontSize=9;" vertex="1" parent="6">
                    <mxGeometry x="-315" y="650" width="70" height="30" as="geometry"/>
                </mxCell>
                <mxCell id="109" value="" style="endArrow=block;html=1;dashed=1;fontSize=9;endFill=1;" edge="1" parent="6">
                    <mxGeometry width="50" height="50" relative="1" as="geometry">
                        <mxPoint x="45" y="780" as="sourcePoint"/>
                        <mxPoint x="-215" y="780" as="targetPoint"/>
                    </mxGeometry>
                </mxCell>
                <mxCell id="17" value="" style="html=1;verticalAlign=bottom;endArrow=block;rounded=0;" parent="1" edge="1">
                    <mxGeometry x="-0.2821" y="18" width="80" relative="1" as="geometry">
                        <mxPoint x="350" y="490" as="sourcePoint"/>
                        <mxPoint x="610" y="490" as="targetPoint"/>
                        <mxPoint as="offset"/>
                    </mxGeometry>
                </mxCell>
                <mxCell id="23" value="" style="endArrow=block;html=1;endFill=1;entryX=0.5;entryY=0.075;entryDx=0;entryDy=0;entryPerimeter=0;exitX=1.5;exitY=0.081;exitDx=0;exitDy=0;exitPerimeter=0;" parent="1" source="5" target="9" edge="1">
                    <mxGeometry width="50" height="50" relative="1" as="geometry">
                        <mxPoint x="357.5" y="220" as="sourcePoint"/>
                        <mxPoint x="607.5" y="220" as="targetPoint"/>
                    </mxGeometry>
                </mxCell>
                <mxCell id="24" value="Suchanfrage stellen (mit angegebenen Kriterien)" style="edgeLabel;html=1;align=center;verticalAlign=middle;resizable=0;points=[];" parent="23" vertex="1" connectable="0">
                    <mxGeometry x="0.2701" relative="1" as="geometry">
                        <mxPoint x="-37" y="-8" as="offset"/>
                    </mxGeometry>
                </mxCell>
                <mxCell id="28" value="&lt;font style=&quot;font-size: 9px&quot;&gt;[Eingabe ungültig]&lt;/font&gt;" style="text;html=1;align=center;verticalAlign=middle;resizable=0;points=[];autosize=1;strokeColor=none;fillColor=none;" parent="1" vertex="1">
                    <mxGeometry x="250" y="380" width="90" height="20" as="geometry"/>
                </mxCell>
                <mxCell id="29" value="" style="endArrow=block;html=1;endFill=1;dashed=1;" parent="1" edge="1">
                    <mxGeometry width="50" height="50" relative="1" as="geometry">
                        <mxPoint x="607.5" y="340" as="sourcePoint"/>
                        <mxPoint x="357.5" y="340" as="targetPoint"/>
                    </mxGeometry>
                </mxCell>
                <mxCell id="30" value="Liste reservierbarer Fahrzeuge" style="edgeLabel;html=1;align=center;verticalAlign=middle;resizable=0;points=[];" parent="29" vertex="1" connectable="0">
                    <mxGeometry x="0.4743" y="-4" relative="1" as="geometry">
                        <mxPoint x="57" y="-7" as="offset"/>
                    </mxGeometry>
                </mxCell>
                <mxCell id="31" value="" style="endArrow=block;html=1;endFill=1;dashed=1;" parent="1" edge="1">
                    <mxGeometry width="50" height="50" relative="1" as="geometry">
                        <mxPoint x="610" y="400" as="sourcePoint"/>
                        <mxPoint x="350" y="400" as="targetPoint"/>
                    </mxGeometry>
                </mxCell>
                <mxCell id="32" value="Suche gescheitert(Fehlermeldung)" style="edgeLabel;html=1;align=center;verticalAlign=middle;resizable=0;points=[];" parent="31" vertex="1" connectable="0">
                    <mxGeometry x="0.4743" y="-4" relative="1" as="geometry">
                        <mxPoint x="57" y="-7" as="offset"/>
                    </mxGeometry>
                </mxCell>
                <mxCell id="37" value="bereits vorausgesetzt ist, dass sich der Kunde/Nutzer bereits&amp;nbsp;&lt;br&gt;bei Rostlaube registriert und angemeldet hat" style="text;html=1;align=center;verticalAlign=middle;resizable=0;points=[];autosize=1;strokeColor=none;fillColor=none;fontSize=9;" parent="1" vertex="1">
                    <mxGeometry y="14" width="260" height="30" as="geometry"/>
                </mxCell>
                <mxCell id="38" value="Suchfunktion aufrufen" style="text;html=1;align=center;verticalAlign=middle;resizable=0;points=[];autosize=1;strokeColor=none;fillColor=none;fontSize=9;" parent="1" vertex="1">
                    <mxGeometry x="420" y="100" width="100" height="20" as="geometry"/>
                </mxCell>
                <mxCell id="39" value="" style="endArrow=block;html=1;fontSize=9;endFill=1;exitX=1.017;exitY=0.012;exitDx=0;exitDy=0;exitPerimeter=0;entryX=0.141;entryY=0.004;entryDx=0;entryDy=0;entryPerimeter=0;" parent="1" source="5" target="9" edge="1">
                    <mxGeometry width="50" height="50" relative="1" as="geometry">
                        <mxPoint x="360" y="120" as="sourcePoint"/>
                        <mxPoint x="610" y="118" as="targetPoint"/>
                    </mxGeometry>
                </mxCell>
                <mxCell id="44" value="Reservierung für Fahrzeug anfragen" style="text;html=1;align=center;verticalAlign=middle;resizable=0;points=[];autosize=1;strokeColor=none;fillColor=none;fontSize=9;" parent="1" vertex="1">
                    <mxGeometry x="390" y="470" width="160" height="20" as="geometry"/>
                </mxCell>
                <mxCell id="46" value="" style="endArrow=block;html=1;dashed=1;fontSize=9;exitX=0.171;exitY=0.334;exitDx=0;exitDy=0;exitPerimeter=0;endFill=1;entryX=1.023;entryY=0.415;entryDx=0;entryDy=0;entryPerimeter=0;" parent="1" edge="1">
                    <mxGeometry width="50" height="50" relative="1" as="geometry">
                        <mxPoint x="616.71" y="600.4931599999999" as="sourcePoint"/>
                        <mxPoint x="345.23" y="599.9000000000001" as="targetPoint"/>
                    </mxGeometry>
                </mxCell>
                <mxCell id="47" value="Reserviervorgang starten" style="text;html=1;align=center;verticalAlign=middle;resizable=0;points=[];autosize=1;strokeColor=none;fillColor=none;fontSize=9;" parent="1" vertex="1">
                    <mxGeometry x="430" y="580" width="120" height="20" as="geometry"/>
                </mxCell>
                <mxCell id="50" value="" style="endArrow=open;dashed=1;html=1;fontSize=9;startArrow=none;startFill=0;endFill=0;" parent="1" edge="1">
                    <mxGeometry width="50" height="50" relative="1" as="geometry">
                        <mxPoint x="190" y="510" as="sourcePoint"/>
                        <mxPoint x="320" y="470" as="targetPoint"/>
                    </mxGeometry>
                </mxCell>
                <mxCell id="51" value="Der Kunde lässt sich bei der Auswahl des Fahrzeugs bzw.&lt;br&gt;bei der Begutachtung eines potentiellen Kandidaten zu viel Zeit&lt;br&gt;und das Auto wurde bereits von einem anderen Kunden reserviert" style="text;html=1;align=center;verticalAlign=middle;resizable=0;points=[];autosize=1;strokeColor=none;fillColor=none;fontSize=9;" parent="1" vertex="1">
                    <mxGeometry x="-50" y="500" width="280" height="40" as="geometry"/>
                </mxCell>
                <mxCell id="57" value="" style="html=1;verticalAlign=bottom;endArrow=open;rounded=0;dashed=1;endFill=0;entryX=0.005;entryY=0.017;entryDx=0;entryDy=0;entryPerimeter=0;exitX=1.239;exitY=0.346;exitDx=0;exitDy=0;exitPerimeter=0;" parent="1" target="64" edge="1" source="9">
                    <mxGeometry x="-0.2821" y="18" width="80" relative="1" as="geometry">
                        <mxPoint x="1110" y="614" as="sourcePoint"/>
                        <mxPoint x="830" y="610" as="targetPoint"/>
                        <mxPoint as="offset"/>
                    </mxGeometry>
                </mxCell>
                <mxCell id="64" value=":Reservierung" style="shape=umlLifeline;perimeter=lifelinePerimeter;whiteSpace=wrap;html=1;container=1;collapsible=0;recursiveResize=0;outlineConnect=0;" parent="1" vertex="1">
                    <mxGeometry x="1270" y="595" width="100" height="1146" as="geometry"/>
                </mxCell>
                <mxCell id="65" style="edgeStyle=none;html=1;" parent="64" target="64" edge="1">
                    <mxGeometry relative="1" as="geometry">
                        <mxPoint x="49.5" y="170" as="sourcePoint"/>
                    </mxGeometry>
                </mxCell>
                <mxCell id="66" value="" style="html=1;points=[];perimeter=orthogonalPerimeter;verticalAlign=bottom;" parent="64" vertex="1">
                    <mxGeometry x="45" y="80" width="10" height="900" as="geometry"/>
                </mxCell>
                <mxCell id="77" value=":Fahrzeug" style="shape=umlLifeline;perimeter=lifelinePerimeter;whiteSpace=wrap;html=1;container=1;collapsible=0;recursiveResize=0;outlineConnect=0;" parent="1" vertex="1">
                    <mxGeometry x="880" y="10" width="110" height="1560" as="geometry"/>
                </mxCell>
                <mxCell id="79" value="" style="html=1;points=[];perimeter=orthogonalPerimeter;verticalAlign=bottom;" parent="77" vertex="1">
                    <mxGeometry x="50" y="450" width="10" height="1110" as="geometry"/>
                </mxCell>
                <mxCell id="96" value="alt" style="shape=umlFrame;whiteSpace=wrap;html=1;width=40;height=20;" parent="77" vertex="1">
                    <mxGeometry x="-730" y="550" width="830" height="414" as="geometry"/>
                </mxCell>
                <mxCell id="54" value="&lt;font style=&quot;font-size: 8px&quot;&gt;[keine bestehende &lt;br&gt;Reservierung]&lt;/font&gt;" style="text;html=1;align=center;verticalAlign=middle;resizable=0;points=[];autosize=1;strokeColor=none;fillColor=none;fontSize=9;" parent="77" vertex="1">
                    <mxGeometry x="-720" y="580" width="80" height="30" as="geometry"/>
                </mxCell>
                <mxCell id="55" value="[else]" style="text;html=1;align=center;verticalAlign=middle;resizable=0;points=[];autosize=1;strokeColor=none;fillColor=none;fontSize=8;" parent="77" vertex="1">
                    <mxGeometry x="-710" y="910" width="30" height="20" as="geometry"/>
                </mxCell>
                <mxCell id="85" value="" style="html=1;verticalAlign=bottom;endArrow=block;rounded=0;dashed=1;" parent="1" edge="1">
                    <mxGeometry x="-0.2821" y="18" width="80" relative="1" as="geometry">
                        <mxPoint x="920" y="590" as="sourcePoint"/>
                        <mxPoint x="630" y="590" as="targetPoint"/>
                        <mxPoint as="offset"/>
                        <Array as="points"/>
                    </mxGeometry>
                </mxCell>
                <mxCell id="86" value="ist verfügbar" style="text;html=1;align=center;verticalAlign=middle;resizable=0;points=[];autosize=1;strokeColor=none;fillColor=none;" parent="1" vertex="1">
                    <mxGeometry x="740" y="570" width="80" height="20" as="geometry"/>
                </mxCell>
                <mxCell id="88" value="ist nicht verfügbar" style="text;html=1;align=center;verticalAlign=middle;resizable=0;points=[];autosize=1;strokeColor=none;fillColor=none;" parent="1" vertex="1">
                    <mxGeometry x="725" y="920" width="110" height="20" as="geometry"/>
                </mxCell>
                <mxCell id="118" value="auf Verfügbarkeit prüfen" style="text;html=1;align=center;verticalAlign=middle;resizable=0;points=[];autosize=1;strokeColor=none;fillColor=none;" vertex="1" parent="1">
                    <mxGeometry x="700" y="480" width="140" height="20" as="geometry"/>
                </mxCell>
                <mxCell id="119" value="while Eingabe &lt;br&gt;ungültig" style="text;html=1;align=center;verticalAlign=middle;resizable=0;points=[];autosize=1;strokeColor=none;fillColor=none;fontSize=9;" vertex="1" parent="1">
                    <mxGeometry x="245" y="160" width="70" height="30" as="geometry"/>
                </mxCell>
                <mxCell id="27" value="&lt;font style=&quot;font-size: 9px&quot;&gt;[Eingabe gültig]&lt;/font&gt;" style="text;html=1;align=center;verticalAlign=middle;resizable=0;points=[];autosize=1;strokeColor=none;fillColor=none;" parent="1" vertex="1">
                    <mxGeometry x="260" y="330" width="80" height="20" as="geometry"/>
                </mxCell>
                <mxCell id="25" value="alt" style="shape=umlFrame;whiteSpace=wrap;html=1;width=40;height=20;" parent="1" vertex="1">
                    <mxGeometry x="250" y="300" width="400" height="130" as="geometry"/>
                </mxCell>
                <mxCell id="116" value="loop" style="shape=umlFrame;whiteSpace=wrap;html=1;width=40;height=20;" vertex="1" parent="1">
                    <mxGeometry x="242.5" y="130" width="455" height="330" as="geometry"/>
                </mxCell>
                <mxCell id="53" value="" style="endArrow=none;dashed=1;html=1;fontSize=6;" parent="1" edge="1">
                    <mxGeometry width="50" height="50" relative="1" as="geometry">
                        <mxPoint x="980" y="896" as="sourcePoint"/>
                        <mxPoint x="150" y="896" as="targetPoint"/>
                    </mxGeometry>
                </mxCell>
            </root>
        </mxGraphModel>
    </diagram>
</mxfile>